<svg width="512" height="512" viewBox="0 0 512 512" fill="none" xmlns="http://www.w3.org/2000/svg">
<path d="M410.182 202.003C410.189 211.554 408.858 221.058 406.226 230.239C424.867 240.943 441.415 254.933 455.072 271.532C471.567 236.82 475.221 197.385 465.386 160.233C455.551 123.081 432.864 90.6193 401.355 68.6153C369.847 46.6112 331.557 36.4902 293.291 40.0504C255.025 43.6107 219.26 60.6218 192.352 88.061C186.715 93.7864 183.583 101.517 183.646 109.551C183.708 117.585 186.96 125.266 192.685 130.903C198.411 136.54 206.141 139.671 214.175 139.609C222.21 139.546 229.89 136.294 235.527 130.569C249.712 116.127 267.876 106.236 287.703 102.156C307.531 98.0762 328.124 99.9921 346.859 107.66C365.593 115.327 381.62 128.399 392.898 145.21C404.175 162.021 410.192 181.808 410.182 202.051V202.003Z" fill="#F72626"/>
<path d="M107.812 278.794C104.373 264.949 102.597 250.743 102.523 236.477C102.435 215.31 105.527 194.25 111.696 174.002L61.0631 157.442L54.1531 155.273C46.0177 181.571 41.9204 208.95 42.0012 236.477C42.0639 255.805 44.4641 275.054 49.1494 293.806L107.812 278.794Z" fill="#FFB800"/>
<path d="M116.295 160.803C129.087 128.224 150.073 99.4983 177.221 77.4073C183.427 72.3107 187.354 64.9576 188.138 56.9657C188.922 48.9738 186.5 40.9977 181.403 34.792C176.307 28.5864 168.953 24.6595 160.962 23.8753C152.97 23.0911 144.994 25.5137 138.788 30.6103C102.731 60.0091 75.0932 98.4238 58.6803 141.956L116.295 160.803Z" fill="#38AAEA"/>
<path d="M167.548 378.942C155.162 367.496 144.086 354.709 134.523 340.818C124.768 325.713 117.053 309.385 111.577 292.258L52.8903 307.269C59.6514 329.515 69.3216 350.77 81.6499 370.483C82.3885 371.603 83.151 372.675 83.8897 373.771C92.0654 386.403 101.347 398.284 111.625 409.274L126.279 424.905L167.548 378.942Z" fill="#85DB18"/>
<path d="M416.782 252.989C387.906 232.093 353.277 220.633 317.636 220.179C287.375 219.631 260.641 225.588 240.316 237.406C217.275 250.797 203.789 271.17 203.36 293.234C202.741 324.209 228.474 360.784 302.363 364.239C304.436 364.239 306.223 364.43 307.652 364.454H308.51C338.358 364.473 367.627 356.226 393.074 340.627C390.024 329.928 381.946 319.706 370.128 311.438C361.51 305.485 351.936 301.052 341.821 298.333C331.255 302.017 320.152 303.925 308.963 303.98H305.46C302.244 303.789 297.716 303.384 292.689 302.67C286.041 301.803 279.496 300.279 273.15 298.119C270.311 297.081 267.626 295.662 265.168 293.901C270.077 288.897 285.922 280.462 315.682 280.844C339.008 280.937 361.733 288.254 380.731 301.788C399.34 315.584 408.776 333.121 408.776 353.922C408.803 362.029 407.119 370.049 403.834 377.461C400.55 384.872 395.738 391.506 389.714 396.931C368.96 416.66 333.6 427.62 294.404 426.786H293.761C292.093 426.786 290.425 426.786 288.757 426.596V426.762C263.214 426.286 227.688 420.853 193.781 399.385C188.355 395.946 183.114 392.224 178.079 388.234L137.573 433.315C145.16 439.526 153.117 445.271 161.4 450.518C200.712 474.959 246.163 487.718 292.451 487.308H293.142C295.048 487.308 296.978 487.308 298.86 487.308C352.186 487.308 399.96 470.629 431.412 440.749C443.402 429.687 452.959 416.25 459.473 401.294C465.987 386.337 469.317 370.188 469.25 353.875C469.297 313.868 450.64 278.08 416.782 252.989Z" fill="#F72626"/>
</svg>
